<svg xmlns="http://www.w3.org/2000/svg" viewBox="0 0 841 594" width="841" height="594"><rect width="100%" height="100%" fill="#FAFAFA"/><rect x="0" y="0" width="841" height="594" fill="#FAFAFA"/>
<text x="40" y="64" fill="#1A1A1A" font-size="24" font-family="'Helvetica Neue', Helvetica, Arial, sans-serif" font-weight="700">BARCELONA EIXAMPLE</text>
<text x="40" y="84" fill="#666666" font-size="14" font-family="'Helvetica Neue', Helvetica, Arial, sans-serif" font-weight="300">Cerdà Grid, 1859</text>
<line x1="40" y1="95" x2="801" y2="95" stroke="#E5E5E5" stroke-width="0.25"/>
<svg x="40" y="110" width="360.5" height="248.39999999999998" viewBox="0 0 300 300"><rect x="0" y="0" width="300" height="300" fill="#FAFAFA"/>
<line x1="20" y1="36.99346405228758" x2="280" y2="36.99346405228758" stroke="#666666" stroke-width="0.25" opacity="0.3"/>
<line x1="20" y1="263.0065359477124" x2="280" y2="263.0065359477124" stroke="#666666" stroke-width="0.25" opacity="0.3"/>
<line x1="36.99346405228758" y1="20" x2="36.99346405228758" y2="280" stroke="#666666" stroke-width="0.25" opacity="0.3"/>
<line x1="263.0065359477124" y1="20" x2="263.0065359477124" y2="280" stroke="#666666" stroke-width="0.25" opacity="0.3"/>
<polygon points="87.97385620915033,53.98692810457516 212.02614379084966,53.98692810457516 195.03267973856208,84.57516339869281 104.9673202614379,84.57516339869281" fill="#1A1A1A" stroke="#1A1A1A" stroke-width="0.5"/>
<polygon points="246.01307189542482,87.97385620915033 246.01307189542482,212.02614379084966 215.4248366013072,195.03267973856208 215.4248366013072,104.9673202614379" fill="#1A1A1A" stroke="#1A1A1A" stroke-width="0.5"/>
<polygon points="212.02614379084966,246.01307189542482 87.97385620915033,246.01307189542482 104.9673202614379,215.4248366013072 195.03267973856208,215.4248366013072" fill="#1A1A1A" stroke="#1A1A1A" stroke-width="0.5"/>
<polygon points="53.98692810457516,212.02614379084966 53.98692810457516,87.97385620915033 84.57516339869281,104.9673202614379 84.57516339869281,195.03267973856208" fill="#1A1A1A" stroke="#1A1A1A" stroke-width="0.5"/>
<polygon points="212.02614379084966,53.98692810457516 246.01307189542482,87.97385620915033 215.4248366013072,104.9673202614379 195.03267973856208,84.57516339869281" fill="#1A1A1A" stroke="#1A1A1A" stroke-width="0.5"/>
<polygon points="246.01307189542482,212.02614379084966 212.02614379084966,246.01307189542482 195.03267973856208,215.4248366013072 215.4248366013072,195.03267973856208" fill="#1A1A1A" stroke="#1A1A1A" stroke-width="0.5"/>
<polygon points="87.97385620915033,246.01307189542482 53.98692810457516,212.02614379084966 84.57516339869281,195.03267973856208 104.9673202614379,215.4248366013072" fill="#1A1A1A" stroke="#1A1A1A" stroke-width="0.5"/>
<polygon points="53.98692810457516,87.97385620915033 87.97385620915033,53.98692810457516 104.9673202614379,84.57516339869281 84.57516339869281,104.9673202614379" fill="#1A1A1A" stroke="#1A1A1A" stroke-width="0.5"/>
<line x1="20" y1="290" x2="104.9673202614379" y2="290" stroke="#1A1A1A" stroke-width="0.5"/>
<text x="62.48366013071895" y="286" fill="#1A1A1A" font-size="6" text-anchor="middle">50m</text></svg>
<svg x="440.5" y="110" width="360.5" height="248.39999999999998" viewBox="0 0 300 300"><rect x="0" y="0" width="300" height="300" fill="#FAFAFA"/>
<line x1="150" y1="108.02183654705539" x2="30" y2="168.0218365470554" stroke="#E5E5E5" stroke-width="0.15"/>
<line x1="160.61946902654867" y1="113.33157106032972" x2="40.61946902654867" y2="173.33157106032974" stroke="#E5E5E5" stroke-width="0.15"/>
<line x1="171.23893805309734" y1="118.64130557360406" x2="51.23893805309734" y2="178.64130557360406" stroke="#E5E5E5" stroke-width="0.15"/>
<line x1="181.858407079646" y1="123.9510400868784" x2="61.858407079646014" y2="183.95104008687838" stroke="#E5E5E5" stroke-width="0.15"/>
<line x1="192.47787610619469" y1="129.26077460015273" x2="72.4778761061947" y2="189.26077460015273" stroke="#E5E5E5" stroke-width="0.15"/>
<line x1="203.09734513274338" y1="134.57050911342705" x2="83.09734513274337" y2="194.57050911342708" stroke="#E5E5E5" stroke-width="0.15"/>
<line x1="213.71681415929206" y1="139.8802436267014" x2="93.71681415929204" y2="199.8802436267014" stroke="#E5E5E5" stroke-width="0.15"/>
<line x1="224.33628318584073" y1="145.18997813997572" x2="104.33628318584073" y2="205.18997813997572" stroke="#E5E5E5" stroke-width="0.15"/>
<line x1="234.9557522123894" y1="150.49971265325007" x2="114.9557522123894" y2="210.49971265325007" stroke="#E5E5E5" stroke-width="0.15"/>
<line x1="245.57522123893807" y1="155.80944716652442" x2="125.57522123893807" y2="215.80944716652442" stroke="#E5E5E5" stroke-width="0.15"/>
<line x1="256.19469026548677" y1="161.11918167979874" x2="136.19469026548674" y2="221.11918167979874" stroke="#E5E5E5" stroke-width="0.15"/>
<line x1="266.8141592920354" y1="166.42891619307306" x2="146.8141592920354" y2="226.42891619307306" stroke="#E5E5E5" stroke-width="0.15"/>
<line x1="150" y1="108.02183654705539" x2="270" y2="168.0218365470554" stroke="#E5E5E5" stroke-width="0.15"/>
<line x1="139.38053097345133" y1="113.33157106032972" x2="259.38053097345136" y2="173.3315710603297" stroke="#E5E5E5" stroke-width="0.15"/>
<line x1="128.76106194690266" y1="118.64130557360406" x2="248.76106194690266" y2="178.64130557360406" stroke="#E5E5E5" stroke-width="0.15"/>
<line x1="118.14159292035399" y1="123.9510400868784" x2="238.14159292035401" y2="183.95104008687838" stroke="#E5E5E5" stroke-width="0.15"/>
<line x1="107.52212389380531" y1="129.26077460015273" x2="227.52212389380531" y2="189.26077460015273" stroke="#E5E5E5" stroke-width="0.15"/>
<line x1="96.90265486725664" y1="134.57050911342708" x2="216.90265486725667" y2="194.57050911342708" stroke="#E5E5E5" stroke-width="0.15"/>
<line x1="86.28318584070797" y1="139.8802436267014" x2="206.28318584070797" y2="199.8802436267014" stroke="#E5E5E5" stroke-width="0.15"/>
<line x1="75.66371681415929" y1="145.18997813997575" x2="195.66371681415933" y2="205.18997813997572" stroke="#E5E5E5" stroke-width="0.15"/>
<line x1="65.04424778761062" y1="150.49971265325007" x2="185.04424778761063" y2="210.49971265325007" stroke="#E5E5E5" stroke-width="0.15"/>
<line x1="54.424778761061944" y1="155.80944716652442" x2="174.42477876106196" y2="215.80944716652442" stroke="#E5E5E5" stroke-width="0.15"/>
<line x1="43.80530973451327" y1="161.11918167979874" x2="163.80530973451332" y2="221.11918167979874" stroke="#E5E5E5" stroke-width="0.15"/>
<line x1="33.1858407079646" y1="166.4289161930731" x2="153.18584070796462" y2="226.42891619307306" stroke="#E5E5E5" stroke-width="0.15"/>
<polygon points="171.23893805309734,118.64130557360406 162.7433628318584,133.5085622107722 162.7433628318584,97.46488911666145 171.23893805309734,82.59763247949331" fill="#D4726A" stroke="#1A1A1A" stroke-width="0.5"/>
<polygon points="137.2566371681416,133.5085622107722 128.76106194690266,118.64130557360406 128.76106194690266,82.59763247949331 137.2566371681416,97.46488911666145" fill="#b4615a" stroke="#1A1A1A" stroke-width="0.5"/>
<polygon points="128.76106194690266,82.59763247949331 171.23893805309734,82.59763247949331 162.7433628318584,97.46488911666145 137.2566371681416,97.46488911666145" fill="#e19c97" stroke="#1A1A1A" stroke-width="0.5"/>
<polygon points="162.7433628318584,133.5085622107722 137.2566371681416,133.5085622107722 137.2566371681416,97.46488911666145 162.7433628318584,97.46488911666145" fill="#9f5650" stroke="#1A1A1A" stroke-width="0.5"/>
<polygon points="219.02654867256638,161.65015513112618 162.7433628318584,133.5085622107722 162.7433628318584,97.46488911666145 219.02654867256638,125.60648203701543" fill="#b4615a" stroke="#1A1A1A" stroke-width="0.5"/>
<polygon points="137.2566371681416,133.5085622107722 80.97345132743362,161.65015513112618 80.97345132743362,125.60648203701544 137.2566371681416,97.46488911666145" fill="#9f5650" stroke="#1A1A1A" stroke-width="0.5"/>
<polygon points="171.23893805309734,82.59763247949331 248.76106194690266,121.35869442639596 219.02654867256638,125.60648203701543 162.7433628318584,97.46488911666145" fill="#e19c97" stroke="#1A1A1A" stroke-width="0.5"/>
<polygon points="51.23893805309734,121.35869442639597 128.76106194690266,82.59763247949331 137.2566371681416,97.46488911666145 80.97345132743362,125.60648203701544" fill="#e19c97" stroke="#1A1A1A" stroke-width="0.5"/>
<polygon points="248.76106194690266,157.4023675205067 219.02654867256638,161.65015513112618 219.02654867256638,125.60648203701543 248.76106194690266,121.35869442639596" fill="#9f5650" stroke="#1A1A1A" stroke-width="0.5"/>
<polygon points="80.97345132743362,161.65015513112618 51.23893805309734,157.40236752050671 51.23893805309734,121.35869442639597 80.97345132743362,125.60648203701544" fill="#9f5650" stroke="#1A1A1A" stroke-width="0.5"/>
<polygon points="248.76106194690266,121.35869442639596 248.76106194690266,142.5976324794933 219.02654867256638,138.34984486887384 219.02654867256638,125.60648203701543" fill="#e19c97" stroke="#1A1A1A" stroke-width="0.5"/>
<polygon points="51.23893805309734,142.5976324794933 51.23893805309734,121.35869442639597 80.97345132743362,125.60648203701544 80.97345132743364,138.34984486887384" fill="#e19c97" stroke="#1A1A1A" stroke-width="0.5"/>
<polygon points="248.76106194690266,178.64130557360406 219.02654867256638,174.39351796298456 219.02654867256638,138.34984486887384 248.76106194690266,142.5976324794933" fill="#9f5650" stroke="#1A1A1A" stroke-width="0.5"/>
<polygon points="80.97345132743364,174.3935179629846 51.23893805309734,178.64130557360406 51.23893805309734,142.5976324794933 80.97345132743364,138.34984486887384" fill="#9f5650" stroke="#1A1A1A" stroke-width="0.5"/>
<polygon points="248.76106194690266,178.64130557360406 171.23893805309737,217.4023675205067 171.23893805309737,181.35869442639594 248.76106194690266,142.5976324794933" fill="#9f5650" stroke="#1A1A1A" stroke-width="0.5"/>
<polygon points="128.76106194690266,217.4023675205067 51.23893805309734,178.64130557360406 51.23893805309734,142.5976324794933 128.76106194690266,181.35869442639594" fill="#b4615a" stroke="#1A1A1A" stroke-width="0.5"/>
<polygon points="248.76106194690266,142.5976324794933 171.23893805309737,181.35869442639594 162.7433628318584,166.49143778922783 219.02654867256638,138.34984486887384" fill="#e19c97" stroke="#1A1A1A" stroke-width="0.5"/>
<polygon points="128.76106194690266,181.35869442639594 51.23893805309734,142.5976324794933 80.97345132743364,138.34984486887384 137.25663716814162,166.49143778922783" fill="#e19c97" stroke="#1A1A1A" stroke-width="0.5"/>
<polygon points="171.23893805309737,217.4023675205067 162.7433628318584,202.53511088333858 162.7433628318584,166.49143778922783 171.23893805309737,181.35869442639594" fill="#b4615a" stroke="#1A1A1A" stroke-width="0.5"/>
<polygon points="137.25663716814162,202.53511088333858 128.76106194690266,217.4023675205067 128.76106194690266,181.35869442639594 137.25663716814162,166.49143778922783" fill="#D4726A" stroke="#1A1A1A" stroke-width="0.5"/>
<polygon points="171.23893805309737,181.35869442639594 128.76106194690266,181.35869442639594 137.25663716814162,166.49143778922783 162.7433628318584,166.49143778922783" fill="#e19c97" stroke="#1A1A1A" stroke-width="0.5"/>
<polygon points="171.23893805309737,217.4023675205067 128.76106194690266,217.4023675205067 128.76106194690266,181.35869442639594 171.23893805309737,181.35869442639594" fill="#9f5650" stroke="#1A1A1A" stroke-width="0.5"/></svg>
<svg x="40" y="373.4" width="272.4" height="144.89999999999998" viewBox="0 0 300 150"><defs>
    <pattern id="groundHatch" patternUnits="userSpaceOnUse" width="6" height="6">
      <line x1="0" y1="6" x2="6" y2="0" stroke="#1A1A1A" stroke-width="0.15"/>
    </pattern>
  </defs>
<rect x="0" y="0" width="300" height="150" fill="#FAFAFA"/>
<rect x="0" y="120" width="300" height="30" fill="url(#groundHatch)"/>
<rect x="215.4248366013072" y="79.2156862745098" width="30.588235294117624" height="40.78431372549019" fill="#1A1A1A" stroke="#1A1A1A" stroke-width="2"/>
<rect x="53.98692810457516" y="79.2156862745098" width="30.588235294117645" height="40.78431372549019" fill="#1A1A1A" stroke="#1A1A1A" stroke-width="2"/>
<line x1="0" y1="120" x2="300" y2="120" stroke="#1A1A1A" stroke-width="2"/>
<path d="M 36.646797385620914 117.45777777777778 A 0.3466666666666666 0.3466666666666666 0 1 1 37.34013071895424 117.45777777777778 A 0.3466666666666666 0.3466666666666666 0 1 1 36.646797385620914 117.45777777777778 M 36.56013071895425 118.1511111111111 L 37.42679738562091 118.1511111111111 L 37.34013071895424 120 L 36.646797385620914 120 Z" fill="#666666"/>
<path d="M 262.6598692810457 117.45777777777778 A 0.3466666666666666 0.3466666666666666 0 1 1 263.3532026143791 117.45777777777778 A 0.3466666666666666 0.3466666666666666 0 1 1 262.6598692810457 117.45777777777778 M 262.57320261437906 118.1511111111111 L 263.43986928104573 118.1511111111111 L 263.3532026143791 120 L 262.6598692810457 120 Z" fill="#666666"/>
<line x1="290" y1="79.2156862745098" x2="290" y2="120" stroke="#666666" stroke-width="0.25"/>
<line x1="287" y1="79.2156862745098" x2="293" y2="79.2156862745098" stroke="#666666" stroke-width="0.25"/>
<line x1="287" y1="120" x2="293" y2="120" stroke="#666666" stroke-width="0.25"/>
<text x="290" y="99.6078431372549" fill="#666666" font-size="6" text-anchor="middle">24m</text></svg>
<svg x="335.1" y="373.4" width="181.60000000000002" height="144.89999999999998" viewBox="0 0 150 150"><rect x="0" y="0" width="150" height="150" fill="#FAFAFA"/>
<line x1="10" y1="18.49673202614379" x2="140" y2="18.49673202614379" stroke="#D4726A" stroke-width="2" opacity="0.6"/>
<line x1="10" y1="131.5032679738562" x2="140" y2="131.5032679738562" stroke="#D4726A" stroke-width="2" opacity="0.6"/>
<line x1="18.49673202614379" y1="10" x2="18.49673202614379" y2="140" stroke="#D4726A" stroke-width="2" opacity="0.6"/>
<line x1="131.5032679738562" y1="10" x2="131.5032679738562" y2="140" stroke="#D4726A" stroke-width="2" opacity="0.6"/>
<circle cx="14.248366013071895" cy="14.248366013071895" r="2.5" fill="#D4726A" opacity="0.6"/>
<circle cx="135.75163398692808" cy="14.248366013071895" r="2.5" fill="#D4726A" opacity="0.6"/>
<circle cx="14.248366013071895" cy="135.75163398692808" r="2.5" fill="#D4726A" opacity="0.6"/>
<circle cx="135.75163398692808" cy="135.75163398692808" r="2.5" fill="#D4726A" opacity="0.6"/></svg>
<svg x="539.4000000000001" y="373.4" width="181.60000000000002" height="144.89999999999998" viewBox="0 0 150 150"><defs>
    <linearGradient id="densityGradient" x1="0%" y1="100%" x2="0%" y2="0%">
      <stop offset="0%" stop-color="#FFFFFF"/>
      <stop offset="100%" stop-color="#D4726A"/>
    </linearGradient>
  </defs>
<rect x="0" y="0" width="150" height="150" fill="#FAFAFA"/>
<polygon points="41.1437908496732,28.0718954248366 88.8562091503268,28.0718954248366 82.3202614379085,39.83660130718954 47.6797385620915,39.83660130718954" fill="#d4726a" stroke="#1A1A1A" stroke-width="0.25"/>
<polygon points="101.9281045751634,41.1437908496732 101.9281045751634,88.8562091503268 90.16339869281046,82.3202614379085 90.16339869281046,47.6797385620915" fill="#d4726a" stroke="#1A1A1A" stroke-width="0.25"/>
<polygon points="88.8562091503268,101.9281045751634 41.1437908496732,101.9281045751634 47.6797385620915,90.16339869281046 82.3202614379085,90.16339869281046" fill="#d4726a" stroke="#1A1A1A" stroke-width="0.25"/>
<polygon points="28.0718954248366,88.8562091503268 28.0718954248366,41.1437908496732 39.83660130718954,47.6797385620915 39.83660130718954,82.3202614379085" fill="#d4726a" stroke="#1A1A1A" stroke-width="0.25"/>
<polygon points="88.8562091503268,28.0718954248366 101.9281045751634,41.1437908496732 90.16339869281046,47.6797385620915 82.3202614379085,39.83660130718954" fill="#d4726a" stroke="#1A1A1A" stroke-width="0.25"/>
<polygon points="101.9281045751634,88.8562091503268 88.8562091503268,101.9281045751634 82.3202614379085,90.16339869281046 90.16339869281046,82.3202614379085" fill="#d4726a" stroke="#1A1A1A" stroke-width="0.25"/>
<polygon points="41.1437908496732,101.9281045751634 28.0718954248366,88.8562091503268 39.83660130718954,82.3202614379085 47.6797385620915,90.16339869281046" fill="#d4726a" stroke="#1A1A1A" stroke-width="0.25"/>
<polygon points="28.0718954248366,41.1437908496732 41.1437908496732,28.0718954248366 47.6797385620915,39.83660130718954 39.83660130718954,47.6797385620915" fill="#d4726a" stroke="#1A1A1A" stroke-width="0.25"/>
<rect x="125" y="15" width="10" height="120" fill="url(#densityGradient)" stroke="#1A1A1A" stroke-width="0.25"/>
<text x="130" y="12" fill="#1A1A1A" font-size="5" text-anchor="middle">7</text>
<text x="130" y="141" fill="#1A1A1A" font-size="5" text-anchor="middle">7</text>
<text x="130" y="147" fill="#666666" font-size="4" text-anchor="middle">stories</text></svg>
<text x="40" y="554" fill="#666666" font-size="9" font-family="'Helvetica Neue', Helvetica, Arial, sans-serif">blockSize: 113  |  chamfer: 20  |  perimeterDepth: 18  |  courtyardSize: 56  |  buildingHeight: 24  |  stories: 7  |  streetWidth: 20</text>
<text x="701" y="554" fill="#666666" font-size="9" font-family="'Helvetica Neue', Helvetica, Arial, sans-serif" text-anchor="end">Scale 1:2500</text>
<line x1="771" y1="556" x2="771" y2="541" stroke="#1A1A1A" stroke-width="0.5"/>
<text x="771" y="538" fill="#1A1A1A" font-size="8" font-family="'Helvetica Neue', Helvetica, Arial, sans-serif" text-anchor="middle">N</text></svg>